HIERARCHY
ROOT hip
{
	OFFSET 0.000000 0.000000 0.000000
	CHANNELS 6 Xposition Yposition Zposition Xrotation Zrotation Yrotation 
	JOINT abdomen
	{
		OFFSET 0.000000 3.422050 0.000000
		CHANNELS 3 Xrotation Zrotation Yrotation 
		JOINT chest
		{
			OFFSET 0.000000 8.486693 -0.684411
			CHANNELS 3 Xrotation Zrotation Yrotation 
			JOINT neck
			{
				OFFSET 0.000000 10.266162 -0.273764
				CHANNELS 3 Xrotation Zrotation Yrotation 
				JOINT head
				{
					OFFSET 0.000000 3.148285 0.000000
					CHANNELS 3 Xrotation Zrotation Yrotation 
					End Site
					{
						OFFSET 0.000000 3.148289 0.000000
					}
				}
			}
			JOINT lCollar
			{
				OFFSET 3.422053 6.707223 -0.821293
				CHANNELS 3 Yrotation Zrotation Xrotation 
				JOINT lShldr
				{
					OFFSET 3.285171 0.000000 0.000000
					CHANNELS 3 Zrotation Yrotation Xrotation 
					JOINT lForeArm
					{
						OFFSET 10.129278 0.000000 0.000000
						CHANNELS 3 Yrotation Zrotation Xrotation 
						JOINT lHand
						{
							OFFSET 8.486692 0.000000 0.000000
							CHANNELS 3 Zrotation Yrotation Xrotation 
							End Site
							{
								OFFSET 4.106464 0.000000 0.000000
							}
						}
					}
				}
			}
			JOINT rCollar
			{
				OFFSET -3.558935 6.707223 -0.821293
				CHANNELS 3 Yrotation Zrotation Xrotation 
				JOINT rShldr
				{
					OFFSET -3.148289 0.000000 0.000000
					CHANNELS 3 Zrotation Yrotation Xrotation 
					JOINT rForeArm
					{
						OFFSET -10.266159 0.000000 0.000000
						CHANNELS 3 Yrotation Zrotation Xrotation 
						JOINT rHand
						{
							OFFSET -8.349810 0.000000 0.000000
							CHANNELS 3 Zrotation Yrotation Xrotation 
							End Site
							{
								OFFSET -4.106464 0.000000 0.000000
							}
						}
					}
				}
			}
		}
	}
	JOINT lThigh
	{
		OFFSET 5.338403 -1.642589 1.368821
		CHANNELS 3 Xrotation Zrotation Yrotation 
		JOINT lShin
		{
			OFFSET -2.053232 -20.121670 0.000000
			CHANNELS 3 Xrotation Zrotation Yrotation 
			JOINT lFoot
			{
				OFFSET 0.000000 -19.300380 -1.231939
				CHANNELS 3 Xrotation Yrotation Zrotation 
				End Site
				{
					OFFSET 0.000000 -2.463878 4.653993
				}
			}
		}
	}
	JOINT rThigh
	{
		OFFSET -5.338403 -1.642589 1.368821
		CHANNELS 3 Xrotation Zrotation Yrotation 
		JOINT rShin
		{
			OFFSET 2.053232 -20.121670 0.000000
			CHANNELS 3 Xrotation Zrotation Yrotation 
			JOINT rFoot
			{
				OFFSET 0.000000 -19.300380 -1.231939
				CHANNELS 3 Xrotation Yrotation Zrotation 
				End Site
				{
					OFFSET 0.000000 -2.463878 4.653993
				}
			}
		}
	}
}
MOTION
Frames: 18
Frame Time: 0.022176
0.000000 43.528500 0.000000 0.000000 0.000000 0.000000 0.000000 0.000000 0.000000 0.000000 0.000000 0.000000 0.000000 0.000000 0.000000 0.000000 0.000000 0.000000 0.000000 0.000000 0.000000 0.000000 0.000000 0.000000 0.000000 0.000000 0.000000 0.000000 0.000000 0.000000 0.000000 0.000000 0.000000 0.000000 0.000000 0.000000 0.000000 0.000000 0.000000 0.000000 0.000000 0.000000 0.000000 0.000000 0.000000 0.000000 0.000000 0.000000 0.000000 0.000000 0.000000 0.000000 0.000000 0.000000 0.000000 0.000000 0.000000 0.000000 0.000000 0.000000 
0.501617 19.807980 2.123629 14.000618 0.000000 -180.000000 59.290344 -1.476866 -1.007544 32.280457 -1.007501 -0.449943 -0.295503 0.000000 0.000000 -0.564786 0.326971 -0.001612 -17.243664 -4.887394 -21.474480 -77.740555 -62.422855 56.881599 2.816475 11.458533 -13.186202 43.097057 -12.970659 7.277531 15.024240 4.229686 -20.959909 80.386703 62.594143 59.266254 -2.330527 -11.291191 -13.123803 -38.205776 11.448526 6.287250 -79.724449 45.196167 11.501448 104.716446 4.625404 -1.630869 -16.194918 -1.220155 -3.980597 -79.672920 -45.290459 -11.616530 104.717308 -4.647822 1.630455 -16.213663 1.283284 3.905076 
0.501617 19.520620 2.123629 13.224227 0.000000 -180.000000 57.585621 -1.476771 -1.007567 31.504244 -1.007419 -0.449968 -0.294763 0.000000 0.000000 -1.097229 0.626641 0.128385 -17.137691 -5.213206 -20.455429 -77.740555 -62.422855 56.881603 2.816475 11.458533 -13.186203 42.634254 -12.635015 7.473619 15.043449 4.572872 -19.963497 80.386703 62.594143 59.266254 -2.330527 -11.291191 -13.123803 -37.682972 11.202834 6.534430 -81.767792 45.322212 10.883983 105.375679 4.656152 -1.577259 -15.922580 -1.161319 -3.756907 -81.721283 -45.413296 -10.990275 105.376518 -4.677290 1.576472 -15.940206 1.220809 3.685422 
0.501617 19.233263 2.123629 12.447483 0.000000 -180.000000 55.874725 -1.476675 -1.007593 30.727465 -1.007339 -0.449995 -0.294022 0.000000 0.000000 -1.630406 0.928286 0.255926 -17.025696 -5.537538 -19.433802 -77.740555 -62.422855 56.881599 2.816475 11.458533 -13.186202 42.173042 -12.297707 7.666746 15.056696 4.916811 -18.965347 80.386711 62.594143 59.266254 -2.330527 -11.291191 -13.123803 -37.161457 10.954839 6.779211 -83.824364 45.433029 10.257053 106.035309 4.686297 -1.523266 -15.650434 -1.101411 -3.533469 -83.782722 -45.520634 -10.354669 106.036125 -4.706153 1.522121 -15.666951 1.157279 3.466041 
0.501617 18.945904 2.123629 11.670240 0.000000 -180.000000 54.158401 -1.476580 -1.007622 29.950172 -1.007257 -0.450022 -0.293281 0.000000 0.000000 -2.164311 1.231873 0.380979 -16.907694 -5.860221 -18.409716 -77.740578 -62.422867 56.881622 2.816475 11.458533 -13.186203 41.713425 -11.958776 7.856912 15.063934 5.261341 -17.965544 80.386703 62.594143 59.266254 -2.330527 -11.291192 -13.123803 -36.641289 10.704582 7.021569 -85.892502 45.528187 9.621770 106.695320 4.715837 -1.468902 -15.378492 -1.040436 -3.310292 -85.855644 -45.612103 -9.710891 106.696091 -4.734403 1.467412 -15.393909 1.092694 3.246942 
0.501617 18.658546 2.123629 10.892565 0.000000 -180.000000 52.437408 -1.476486 -1.007653 29.172459 -1.007177 -0.450051 -0.292541 0.000000 0.000000 -2.698940 1.537367 0.503512 -16.783710 -6.181089 -17.383280 -77.740555 -62.422848 56.881599 2.816475 11.458533 -13.186201 41.255394 -11.618270 8.044119 15.065135 5.606297 -16.964190 80.386703 62.594143 59.266254 -2.330527 -11.291190 -13.123802 -36.122452 10.452096 7.261484 -87.970657 45.607384 8.979335 107.355614 4.744759 -1.414176 -15.106769 -0.978396 -3.087387 -87.938377 -45.687363 -9.060143 107.356392 -4.762034 1.412357 -15.121093 1.027060 3.028132 
0.501617 18.371187 2.123630 10.114530 0.000000 -180.000000 50.712490 -1.476392 -1.007688 28.394375 -1.007096 -0.450080 -0.291800 0.000000 0.000000 -3.234292 1.844734 0.623494 -16.653767 -6.499973 -16.354614 -77.740555 -62.422855 56.881599 2.816475 11.458533 -13.186202 40.798923 -11.276219 8.228360 15.060266 5.951518 -15.961365 80.386696 62.594143 59.266251 -2.330527 -11.291190 -13.123802 -35.604980 10.197419 7.498937 -90.057106 45.670319 8.330991 108.016197 4.773061 -1.359099 -14.835261 -0.915293 -2.864760 -90.029251 -45.746128 -8.403702 108.016922 -4.789038 1.356965 -14.848509 0.960378 2.809621 
0.501617 18.083830 2.123630 9.336205 0.000000 -180.000000 48.984428 -1.476300 -1.007726 27.616020 -1.007017 -0.450111 -0.291060 0.000000 0.000000 -3.770360 2.153937 0.740891 -16.517897 -6.816706 -15.323829 -77.740555 -62.422855 56.881599 2.816475 11.458533 -13.186202 40.344028 -10.932678 8.409641 15.049306 6.296836 -14.957173 80.386703 62.594143 59.266254 -2.330527 -11.291191 -13.123803 -35.088886 9.940593 7.733904 -92.150154 45.716774 7.678018 108.677017 4.800736 -1.303680 -14.563987 -0.851132 -2.642423 -92.126472 -45.788193 -7.742881 108.677711 -4.815413 1.301248 -14.576163 0.892653 2.591417 
0.501617 17.796471 2.123630 8.557668 0.000000 -180.000000 47.253998 -1.476208 -1.007766 26.837437 -1.006937 -0.450143 -0.290319 0.000000 0.000000 -4.307141 2.464938 0.855674 -16.376139 -7.131122 -14.291053 -77.740555 -62.422855 56.881599 2.816475 11.458533 -13.186202 39.890697 -10.587689 8.587963 15.032239 6.642090 -13.951716 80.386703 62.594143 59.266254 -2.330527 -11.291192 -13.123803 -34.574181 9.681654 7.966369 -94.247978 45.746559 7.021747 109.338028 4.827777 -1.247932 -14.292958 -0.785917 -2.420383 -94.228294 -45.813370 -7.079026 109.338684 -4.841151 1.245216 -14.304071 0.823889 2.373529 
0.501617 17.509113 2.123630 7.778985 0.000000 -180.000000 45.521996 -1.476118 -1.007809 26.058714 -1.006858 -0.450176 -0.289578 0.000000 0.000000 -4.844635 2.777702 0.967811 -16.228539 -7.443059 -13.256413 -77.740570 -62.422874 56.881618 2.816475 11.458534 -13.186204 39.438911 -10.241291 8.763323 15.009048 6.987108 -12.945082 80.386703 62.594143 59.266254 -2.330527 -11.291192 -13.123804 -34.060875 9.420642 8.196313 -96.348770 45.759544 6.363530 109.999161 4.854179 -1.191864 -14.022172 -0.719649 -2.198648 -96.332825 -45.821545 -6.413507 109.999779 -4.866244 1.188879 -14.032234 0.754089 2.155966 
0.501617 17.221754 2.123630 7.000226 0.000000 -180.000000 43.789192 -1.476029 -1.007855 25.279917 -1.006780 -0.450210 -0.288838 0.000000 0.000000 -5.382837 3.092189 1.077272 -16.075142 -7.752354 -12.220035 -77.740570 -62.422874 56.881618 2.816475 11.458534 -13.186202 38.988678 -9.893529 8.935726 14.979725 7.331730 -11.937373 80.386711 62.594143 59.266254 -2.330527 -11.291192 -13.123804 -33.549007 9.157600 8.423718 -98.450737 45.755680 5.704734 110.660393 4.879937 -1.135489 -13.751646 -0.652334 -1.977228 -98.438286 -45.812687 -5.747731 110.660973 -4.890691 1.132250 -13.760665 0.683256 1.938735 
0.501617 16.934395 2.123630 6.221468 0.000000 -180.000000 42.056400 -1.475941 -1.007904 24.501122 -1.006701 -0.450245 -0.288097 0.000000 0.000000 -5.921747 3.408360 1.184026 -15.916006 -8.058844 -11.182050 -77.740555 -62.422863 56.881596 2.816475 11.458533 -13.186201 38.539963 -9.544444 9.105171 14.944273 7.675787 -10.928691 80.386681 62.594128 59.266235 -2.330527 -11.291190 -13.123802 -33.038578 8.892568 8.648572 -100.552055 45.734962 5.046719 111.321678 4.905044 -1.078817 -13.481384 -0.583974 -1.756132 -100.542763 -45.786770 -5.083072 111.322205 -4.914485 1.075340 -13.489372 0.611395 1.721846 
0.501617 16.647038 2.123630 5.442783 0.000000 -180.000000 40.324383 -1.475855 -1.007955 23.722401 -1.006624 -0.450281 -0.287357 0.000000 0.000000 -6.461362 3.726174 1.288043 -15.751193 -8.362373 -10.142593 -77.740555 -62.422855 56.881599 2.816475 11.458533 -13.186202 38.092781 -9.194085 9.271666 14.902686 8.019113 -9.919133 80.386681 62.594128 59.266235 -2.330527 -11.291190 -13.123802 -32.529591 8.625583 8.870854 -102.650864 45.697453 4.390868 111.982971 4.929497 -1.021859 -13.211396 -0.514575 -1.535367 -102.644485 -45.743904 -4.420920 111.983467 -4.937622 1.018160 -13.218359 0.538510 1.505307 
0.501617 16.359678 2.123630 4.664241 0.000000 -180.000000 38.593960 -1.475771 -1.008008 22.943823 -1.006547 -0.450318 -0.286616 0.000000 0.000000 -7.001682 4.045591 1.389294 -15.580765 -8.662787 -9.101803 -77.740555 -62.422855 56.881599 2.816475 11.458533 -13.186202 37.647106 -8.842491 9.435210 14.854967 8.361538 -8.908797 80.386703 62.594143 59.266254 -2.330527 -11.291191 -13.123803 -32.022057 8.356687 9.090553 -104.745399 45.643269 3.738531 112.644211 4.953288 -0.964627 -12.941689 -0.444139 -1.314941 -104.741577 -45.684177 -3.762643 112.644653 -4.960095 0.960721 -12.947633 0.464605 1.289124 
0.501617 16.072321 2.123630 3.885913 0.000000 -180.000000 36.865902 -1.475688 -1.008065 22.165453 -1.006470 -0.450357 -0.285875 0.000000 0.000000 -7.542707 4.366571 1.487749 -15.404803 -8.959933 -8.059821 -77.740555 -62.422855 56.881599 2.816475 11.458533 -13.186202 37.202919 -8.489703 9.595804 14.801140 8.702904 -7.897791 80.386703 62.594143 59.266254 -2.330527 -11.291191 -13.123803 -31.515993 8.085922 9.307653 -106.833855 45.572575 3.091021 113.305382 4.976418 -0.907134 -12.672276 -0.372671 -1.094865 -106.832291 -45.607819 -3.109589 113.305771 -4.981904 0.903035 -12.677211 0.389684 1.073309 
0.501617 15.784962 2.123630 3.107871 0.000000 -180.000000 35.140991 -1.475607 -1.008123 21.387383 -1.006394 -0.450396 -0.285135 0.000000 0.000000 -8.084434 4.689068 1.583380 -15.223373 -9.253658 -7.016786 -77.740555 -62.422855 56.881599 2.816475 11.458534 -13.186202 36.760242 -8.135771 9.753461 14.741217 9.043044 -6.886217 80.386703 62.594143 59.266254 -2.330527 -11.291191 -13.123803 -31.011415 7.813333 9.522146 -108.914459 45.485588 2.449639 113.966431 4.998878 -0.849389 -12.403161 -0.300175 -0.875145 -108.914833 -45.515030 -2.463043 113.966751 -5.003042 0.845114 -12.407095 0.313752 0.857867 
0.501617 15.497604 2.123630 2.330188 0.000000 -180.000000 33.419998 -1.475528 -1.008184 20.609667 -1.006319 -0.450436 -0.284394 0.000000 0.000000 -8.626864 5.013043 1.676156 -15.036566 -9.543817 -5.972847 -77.740555 -62.422855 56.881599 2.816475 11.458534 -13.186204 36.319035 -7.780733 9.908175 14.675215 9.381793 -5.874178 80.386703 62.594151 59.266254 -2.330527 -11.291191 -13.123803 -30.508318 7.538955 9.734010 -110.985558 45.382618 1.815631 114.627281 5.020666 -0.791406 -12.134350 -0.226655 -0.655791 -110.987549 -45.406132 -1.824259 114.627556 -5.023507 0.786969 -12.137290 0.236813 0.642807 
0.501617 15.210245 2.123630 1.552935 0.000000 -180.000000 31.703682 -1.475452 -1.008247 19.832378 -1.006244 -0.450477 -0.283653 0.000000 0.000000 -9.169999 5.338450 1.766051 -14.844467 -9.830271 -4.928155 -77.740555 -62.422855 56.881599 2.816475 11.458533 -13.186200 35.879284 -7.424633 10.059955 14.603162 9.718994 -4.861778 80.386703 62.594143 59.266254 -2.330527 -11.291190 -13.123802 -30.006729 7.262835 9.943242 -113.045494 45.263973 1.190173 115.287926 5.041776 -0.733194 -11.865862 -0.152117 -0.436810 -113.048782 -45.281483 -1.194439 115.288147 -5.043293 0.728613 -11.867810 0.158871 0.428137 
